<?xml version="1.0" encoding="UTF-8" standalone="no"?><svg xmlns="http://www.w3.org/2000/svg" xmlns:xlink="http://www.w3.org/1999/xlink" contentScriptType="text/ecmascript" fill="#ffffff" width="126" zoomAndPan="magnify" contentStyleType="text/css" viewBox="0.0 0.0 126.0 99.0" height="99" preserveAspectRatio="xMidYMid meet" version="1"><g id="change1_1"><path fill="inherit" d="M125,52.13H95.25c-0.552,0-1,0.448-1,1v41.9c0,0.552,0.448,1,1,1H125c0.552,0,1-0.448,1-1v-41.9 C126,52.578,125.552,52.13,125,52.13z M124,94.03H96.25v-39.9H124V94.03z"/><path fill="inherit" d="M101.723,69.167c0.188,0.189,0.443,0.293,0.707,0.293c0.04,0,0.081-0.002,0.121-0.007c0.306-0.037,0.577-0.213,0.735-0.477 l3.08-5.11c0.285-0.473,0.133-1.087-0.34-1.373c-0.474-0.285-1.088-0.133-1.373,0.34l-2.42,4.015l-1.146-1.146 c-0.391-0.391-1.023-0.391-1.414,0s-0.391,1.024,0,1.414L101.723,69.167z"/><path fill="inherit" d="M108.59,67.41h9.23c0.552,0,1-0.448,1-1s-0.448-1-1-1h-9.23c-0.552,0-1,0.448-1,1S108.038,67.41,108.59,67.41z"/><path fill="inherit" d="M101.725,77.339c0.189,0.188,0.443,0.291,0.706,0.291c0.041,0,0.082-0.002,0.123-0.007 c0.305-0.038,0.575-0.213,0.734-0.477l3.08-5.11c0.285-0.473,0.133-1.087-0.34-1.373c-0.474-0.285-1.088-0.133-1.373,0.34 l-2.421,4.018l-1.146-1.141c-0.392-0.389-1.025-0.387-1.415,0.003c-0.39,0.392-0.388,1.025,0.003,1.415L101.725,77.339z"/><path fill="inherit" d="M108.59,75.59h9.23c0.552,0,1-0.448,1-1s-0.448-1-1-1h-9.23c-0.552,0-1,0.448-1,1S108.038,75.59,108.59,75.59z"/><path fill="inherit" d="M106.026,78.844c-0.474-0.285-1.088-0.133-1.373,0.34l-2.42,4.015l-1.146-1.146c-0.391-0.391-1.023-0.391-1.414,0 s-0.391,1.023,0,1.414l2.05,2.05c0.188,0.189,0.443,0.293,0.707,0.293c0.04,0,0.081-0.002,0.121-0.007 c0.306-0.037,0.577-0.213,0.735-0.477l3.08-5.11C106.651,79.743,106.499,79.129,106.026,78.844z"/><path fill="inherit" d="M108.59,83.76h9.23c0.552,0,1-0.448,1-1s-0.448-1-1-1h-9.23c-0.552,0-1,0.448-1,1S108.038,83.76,108.59,83.76z"/><path fill="inherit" d="M8.924,64.803c3.504-1.46,7.502-1.469,11.042,0c0.125,0.052,0.255,0.077,0.383,0.077c0.392,0,0.765-0.232,0.924-0.617 c0.211-0.51-0.03-1.095-0.541-1.307c-4.029-1.672-8.584-1.662-12.578,0c-0.51,0.212-0.751,0.798-0.539,1.308 C7.829,64.774,8.415,65.017,8.924,64.803z"/><path fill="inherit" d="M8.929,69.511c1.552-0.655,3.27-1.036,4.969-1.102c2.616-0.098,4.74,0.545,6.065,1.102 c0.127,0.053,0.258,0.079,0.387,0.079c0.391,0,0.762-0.23,0.922-0.613c0.214-0.509-0.025-1.096-0.534-1.31 c-1.511-0.635-3.934-1.371-6.917-1.257c-1.966,0.076-3.874,0.499-5.67,1.257c-0.509,0.215-0.748,0.801-0.533,1.31 C7.833,69.488,8.418,69.728,8.929,69.511z"/><path fill="inherit" d="M8.921,73.625c1.762-0.727,3.622-1.095,5.529-1.095c2.383,0,4.315,0.595,5.516,1.094c0.125,0.052,0.255,0.077,0.383,0.077 c0.392,0,0.764-0.232,0.924-0.617c0.212-0.51-0.03-1.095-0.54-1.307c-1.964-0.816-4.137-1.247-6.284-1.247 c-2.169,0-4.286,0.419-6.292,1.246c-0.51,0.21-0.754,0.795-0.543,1.306C7.826,73.592,8.41,73.835,8.921,73.625z"/><path fill="inherit" d="M20.738,76.488c-1.51-0.636-3.945-1.371-6.917-1.257c-1.967,0.076-3.875,0.5-5.67,1.258 c-0.509,0.215-0.747,0.801-0.532,1.31c0.161,0.382,0.532,0.611,0.921,0.611c0.13,0,0.262-0.026,0.389-0.08 c1.55-0.655,3.269-1.036,4.968-1.102c2.612-0.103,4.74,0.545,6.065,1.103c0.508,0.215,1.096-0.025,1.31-0.534 C21.486,77.289,21.247,76.703,20.738,76.488z"/><path fill="inherit" d="M48,58.17h-3.03v-0.76c0-0.409-0.25-0.777-0.629-0.929c-2.323-0.927-6.037-1.893-10.554-1.241 c-4.156,0.602-7.268,2.336-9.298,3.851c-2.044-1.516-5.167-3.251-9.305-3.851c-4.515-0.652-8.232,0.315-10.554,1.241 C4.25,56.633,4,57.001,4,57.41v0.76H1c-0.552,0-1,0.448-1,1v30.18c0,0.318,0.152,0.618,0.409,0.806 c0.256,0.189,0.588,0.245,0.892,0.147c0.623-0.196,1.377-0.529,2.25-0.914c2.326-1.026,5.518-2.431,8.465-2.212 c4.17,0.31,8.3,1.679,11.944,3.96c0.008,0.005,0.018,0.007,0.027,0.012c0.053,0.031,0.11,0.054,0.168,0.074 c0.026,0.009,0.052,0.023,0.078,0.031c0.078,0.021,0.159,0.032,0.24,0.033c0.006,0,0.011,0.002,0.017,0.002c0,0,0.001,0,0.001,0 s0.001,0,0.001,0c0.006,0,0.012-0.002,0.018-0.002c0.081-0.002,0.161-0.012,0.239-0.033c0.029-0.008,0.055-0.022,0.083-0.032 c0.056-0.021,0.111-0.042,0.164-0.073c0.009-0.005,0.019-0.007,0.028-0.012c3.624-2.28,7.753-3.649,11.941-3.959 c2.952-0.216,6.151,1.188,8.488,2.216c0.873,0.384,1.627,0.715,2.248,0.911c0.304,0.098,0.636,0.042,0.892-0.147 C48.848,89.968,49,89.668,49,89.35V59.17C49,58.618,48.552,58.17,48,58.17z M34.073,57.22c3.691-0.531,6.789,0.131,8.897,0.882 v23.212c-2.167-0.657-5.128-1.176-8.565-0.777c-3.784,0.439-6.769,1.815-8.915,3.19V60.843 C27.314,59.443,30.185,57.784,34.073,57.22z M6,58.102c2.107-0.75,5.206-1.414,8.896-0.882c3.87,0.561,6.754,2.222,8.594,3.625 v22.882c-2.147-1.374-5.134-2.751-8.925-3.19C11.129,80.137,8.167,80.656,6,81.313V58.102z"/><path fill="inherit" d="M29,64.805c3.587-1.476,7.555-1.455,11.045-0.001c0.125,0.052,0.256,0.077,0.384,0.077c0.392,0,0.764-0.232,0.924-0.616 c0.212-0.51-0.029-1.095-0.539-1.308c-3.979-1.656-8.501-1.678-12.575-0.001c-0.511,0.21-0.754,0.795-0.544,1.305 S28.489,65.015,29,64.805z"/><path fill="inherit" d="M28.621,69.59c0.128,0,0.259-0.025,0.384-0.078c1.944-0.81,3.988-1.182,6.066-1.104c1.7,0.066,3.418,0.447,4.97,1.102 c0.508,0.214,1.095-0.024,1.31-0.533s-0.023-1.095-0.533-1.31c-1.796-0.758-3.704-1.182-5.671-1.258 c-2.367-0.088-4.7,0.333-6.912,1.256c-0.51,0.212-0.751,0.798-0.538,1.308C27.857,69.359,28.229,69.59,28.621,69.59z"/><path fill="inherit" d="M40.812,71.776c-4.003-1.651-8.552-1.657-12.572,0c-0.511,0.21-0.754,0.795-0.544,1.306c0.159,0.386,0.532,0.62,0.925,0.62 c0.127,0,0.256-0.024,0.38-0.076c3.535-1.457,7.532-1.451,11.048,0c0.513,0.213,1.096-0.033,1.306-0.543 C41.565,72.571,41.322,71.986,40.812,71.776z"/><path fill="inherit" d="M40.819,76.489c-1.795-0.759-3.704-1.182-5.672-1.259c-2.344-0.091-4.733,0.347-6.913,1.257 c-0.51,0.213-0.75,0.798-0.538,1.308c0.212,0.509,0.797,0.752,1.308,0.538c1.914-0.799,4.008-1.182,6.066-1.104 c1.701,0.066,3.419,0.447,4.97,1.102c0.127,0.054,0.259,0.08,0.389,0.08c0.39,0,0.76-0.229,0.921-0.611 C41.566,77.291,41.328,76.704,40.819,76.489z"/><path fill="inherit" d="M67.476,7.692c-0.287-0.286-0.715-0.37-1.089-0.215C66.013,7.631,65.77,7.996,65.77,8.4v6.13 c0,0.404,0.243,0.768,0.616,0.923c0.124,0.052,0.255,0.077,0.384,0.077c0.259,0,0.514-0.101,0.705-0.291l3.08-3.06 c0.189-0.188,0.295-0.442,0.295-0.708s-0.105-0.521-0.294-0.709L67.476,7.692z M67.77,12.127v-1.318l0.663,0.66L67.77,12.127z"/><path fill="inherit" d="M81.785,24.063c-0.169-0.339-0.516-0.553-0.895-0.553H66.53H52.16c-0.379,0-0.725,0.214-0.895,0.553l-1.558,3.111 c-0.002,0.004-0.004,0.007-0.005,0.011l-1.506,3.008c-0.155,0.31-0.139,0.678,0.043,0.974c0.182,0.295,0.504,0.475,0.851,0.475 h6.147c0.001,0,0.002,0,0.003,0c0.001,0,0.002,0,0.003,0h5.124c0.001,0,0.002,0,0.003,0c0.001,0,0.002,0,0.003,0h6.157h6.147 c0.001,0,0.002,0,0.003,0c0.001,0,0.002,0,0.003,0h5.124c0.001,0,0.002,0,0.003,0c0.001,0,0.002,0,0.003,0h6.147 c0.347,0,0.669-0.18,0.851-0.475c0.182-0.295,0.198-0.664,0.043-0.974L81.785,24.063z M80.803,26.57h-3.299l-0.355-1.06h3.123 L80.803,26.57z M73.4,29.64l-0.358-1.07h3.021l0.358,1.07H73.4z M56.629,29.64l0.358-1.07h3.021l-0.358,1.07H56.629z M61.031,25.51 l-0.354,1.06h-3.021l0.354-1.06H61.031z M62.117,28.57h3.413v1.07h-3.771L62.117,28.57z M67.53,28.57h3.403l0.358,1.07H67.53V28.57 z M67.53,25.51h2.38l0.354,1.06H67.53V25.51z M72.373,26.57l-0.355-1.06h3.021l0.354,1.06H72.373z M65.53,26.57h-2.744l0.354-1.06 h2.39V26.57z M55.901,25.51l-0.354,1.06h-3.299l0.531-1.06H55.901z M51.246,28.57h3.632l-0.358,1.07h-3.81L51.246,28.57z M78.53,29.64l-0.358-1.07h3.632l0.536,1.07H78.53z"/><path fill="inherit" d="M83.94,21.152V1c0-0.552-0.448-1-1-1H50.11c-0.552,0-1,0.448-1,1v20.152l-4.977,7.936c-0.1,0.159-0.153,0.343-0.153,0.531 v4.09c0,0.552,0.448,1,1,1h43.09c0.552,0,1-0.448,1-1v-4.09c0-0.188-0.053-0.372-0.153-0.531L83.94,21.152z M55.21,16.35V6.09 h22.63v10.26H55.21z M87.07,32.71H45.98v-2.802l4.683-7.468h31.724l4.683,7.468V32.71z"/><path fill="inherit" d="M23.003,49.974c0.117,0.045,0.238,0.066,0.356,0.066c0.402,0,0.782-0.245,0.934-0.644 c2.451-6.418,6.436-12.297,11.525-17.002c0.406-0.375,0.431-1.008,0.056-1.413c-0.376-0.406-1.009-0.431-1.413-0.056 c-5.314,4.913-9.476,11.053-12.036,17.758C22.229,49.199,22.487,49.777,23.003,49.974z"/><path fill="inherit" d="M79.572,95.092c-8.418,2.534-17.687,2.53-26.094,0c-0.528-0.158-1.086,0.141-1.246,0.669 c-0.159,0.529,0.141,1.086,0.669,1.246C57.295,98.33,61.88,99,66.53,99c4.643,0,9.225-0.67,13.618-1.993 c0.529-0.159,0.829-0.717,0.669-1.246C80.658,95.232,80.101,94.934,79.572,95.092z"/><path fill="inherit" d="M108.677,49.201c0.153,0.396,0.532,0.64,0.933,0.64c0.12,0,0.242-0.022,0.361-0.068c0.515-0.199,0.771-0.778,0.572-1.293 c-2.487-6.428-6.472-12.36-11.524-17.154c-0.4-0.379-1.034-0.364-1.414,0.037c-0.38,0.401-0.364,1.034,0.037,1.414 C102.48,37.368,106.296,43.047,108.677,49.201z"/></g></svg>