<?xml version="1.0" encoding="UTF-8" standalone="no"?><svg xmlns="http://www.w3.org/2000/svg" xmlns:xlink="http://www.w3.org/1999/xlink" contentScriptType="text/ecmascript" fill="#ffffff" width="63.1" zoomAndPan="magnify" contentStyleType="text/css" viewBox="1.0 1.0 63.1 63.2" height="63.2" preserveAspectRatio="xMidYMid meet" version="1"><g id="change1_1" data-name="Layer 23"><path fill="inherit" d="M17 5H19V7H17z"/><path fill="inherit" d="M27 5H29V7H27z"/><path fill="inherit" d="M16.29 37.29L14 39.59 11.71 37.29 10.29 38.71 12.59 41 10.29 43.29 11.71 44.71 14 42.41 16.29 44.71 17.71 43.29 15.41 41 17.71 38.71 16.29 37.29z"/><path fill="inherit" d="M11.71,17.29l-1.42,1.42,2,2a1,1,0,0,0,1.42,0l4-4-1.42-1.42L13,18.59Z"/><path fill="inherit" d="M13,29.59l-1.29-1.3-1.42,1.42,2,2a1,1,0,0,0,1.42,0l4-4-1.42-1.42Z"/><path fill="inherit" d="M20 15H37V17H20z"/><path fill="inherit" d="M20 19H37V21H20z"/><path fill="inherit" d="M20 26H37V28H20z"/><path fill="inherit" d="M20 30H37V32H20z"/><path fill="inherit" d="M20 38H37V40H20z"/><path fill="inherit" d="M20 42H33V44H20z"/><path fill="inherit" d="M35 42H37V44H35z"/><path fill="inherit" d="M50,37a12.68,12.68,0,0,0-5,1V4a1,1,0,0,0-1-1H34V2a1,1,0,0,0-1-1H13a1,1,0,0,0-1,1V3H2A1,1,0,0,0,1,4V58a1,1,0,0,0,1,1H40.64A13,13,0,1,0,50,37ZM43,5V37.61L41,37V8a1,1,0,0,0-1-1H34V5ZM14,3H32V9H14Zm19,8a1,1,0,0,0,1-1V9h5V36.28l-.68-.23a1,1,0,0,0-1.23,1.36l2.28,5.13A12.85,12.85,0,0,0,37,50c0,.34,0,.67,0,1H7V9h5v1a1,1,0,0,0,1,1ZM3,57V5h9V7H6A1,1,0,0,0,5,8V52a1,1,0,0,0,1,1H37.36a13.05,13.05,0,0,0,1.7,4Zm45,3.81V56a1,1,0,0,0-.57-.9A6,6,0,0,1,47,44.51v5.2a1,1,0,0,0,.29.7l2,2a1,1,0,0,0,1.42,0l2-2a1,1,0,0,0,.29-.7v-5.2a6,6,0,0,1-.43,10.61A1,1,0,0,0,52,56v4.79a10.62,10.62,0,0,1-4,0Zm6-.57V56.63A8,8,0,0,0,52.29,42a1,1,0,0,0-.89.16,1,1,0,0,0-.4.8v6.29l-1,1-1-1V43a1,1,0,0,0-1.29-1A8,8,0,0,0,46,56.63v3.61A11,11,0,0,1,39,50a10.88,10.88,0,0,1,2.31-6.72,1,1,0,0,0,.12-1l-1.6-3.59,4.57,1.52a1.05,1.05,0,0,0,.76,0A10.79,10.79,0,0,1,50,39a11,11,0,0,1,4,21.24Z"/></g></svg>