<?xml version="1.0" encoding="UTF-8" standalone="no"?><svg xmlns="http://www.w3.org/2000/svg" xmlns:xlink="http://www.w3.org/1999/xlink" contentScriptType="text/ecmascript" zoomAndPan="magnify" contentStyleType="text/css" stroke="#000000" stroke-linecap="square" version="1" width="158" stroke-miterlimit="10" fill="#000000" preserveAspectRatio="xMidYMid meet" viewBox="0 0 157.76 157.76" height="158"><g><g fill="#004aad" stroke="#004aad"><path d="M79.62 1.24l76.72 76.79c.39.39.39 1.03 0 1.41L79.55 156.16c-.39.39-1.03.39-1.41 0L1.41 79.38c-.39-.39-.39-1.03 0-1.41L78.2 1.24c.39-.39 1.03-.39 1.41 0M78.2 2.65l.71-.71.71.71L2.83 79.38l-.71-.71.71-.71 76.72 76.79-.71.71-.71-.71 76.79-76.72.71.71-.71.71L78.2 2.65Z" stroke="none"/><path fill="none" d="M79.62 1.24l76.72 76.79c.39.39.39 1.03 0 1.41L79.55 156.16c-.39.39-1.03.39-1.41 0L1.41 79.38c-.39-.39-.39-1.03 0-1.41L78.2 1.24c.39-.39 1.03-.39 1.41 0M78.2 2.65l.71-.71.71.71L2.83 79.38l-.71-.71.71-.71 76.72 76.79-.71.71-.71-.71 76.79-76.72.71.71-.71.71L78.2 2.65Z"/></g></g></svg>