<?xml version="1.0" encoding="UTF-8" standalone="no"?><svg xmlns="http://www.w3.org/2000/svg" xmlns:xlink="http://www.w3.org/1999/xlink" contentScriptType="text/ecmascript" fill="#ffffff" width="67.8" zoomAndPan="magnify" contentStyleType="text/css" viewBox="12.6 6.6 67.8 80.4" height="80.4" preserveAspectRatio="xMidYMid meet" version="1"><g id="change1_1"><path fill="inherit" d="M39.2,27.7c4.9-0.6,9.8-0.6,14.6,0l8.8-12c0.5-0.8-0.2-2-1.1-2.3L57,11.6l-3.2,6.1c-0.2,0.5-0.9,1-1.7,0.6 c-0.6-0.3-0.9-1.1-0.5-1.7l0,0l4-7.8c0.3-0.8-0.9-2.2-2.3-2.2H39.7c-1.2,0-2.6,1-2.3,2.1l4.2,7.7c0.3,0.6,0.1,1.4-0.5,1.7 c-0.6,0.3-1.5-0.1-1.7-0.5l-3.4-6l-4.6,1.9c-1.1,0.5-1.6,1.4-1.1,2.3L39.2,27.7z"/><path fill="inherit" d="M40.4,50.2v3.6c0,1.2,1.2,2.3,2.3,3l2.9,1.1V46.2h-1.2C42.2,46.2,40.4,48,40.4,50.2z"/><path fill="inherit" d="M79.7,68.8C77.1,47.5,55.6,31,53.9,30.3c-0.8-0.4-4.1-0.5-7.3-0.5S40,30,39.2,30.3C37.5,31,16,47.5,13.3,68.8 c-0.7,5.3,0.4,9.5,3.1,12.6c4.9,5.5,13.7,5.6,13.8,5.6h32.6c0.1,0,8.9-0.1,13.8-5.6C79.4,78.3,80.4,74,79.7,68.8z M55.1,51.9 c0,0.7-0.6,1.2-1.2,1.2s-1.2-0.6-1.2-1.2v-1.7c0-2.2-1.8-4-4-4h-0.5v12.6l3.4,1.3c2.4,1.5,3.6,3.3,3.6,5.2V69 c0,3.6-2.9,6.5-6.5,6.5h-0.5v1c0,0.7-0.6,1.2-1.2,1.2s-1.2-0.6-1.2-1.2v-1h-1.2c-3.6,0-6.5-2.9-6.5-6.5v-1.7c0-0.7,0.6-1.2,1.2-1.2 s1.2,0.6,1.2,1.2V69c0,2.2,1.8,4,4,4h1.2V60.6L41.5,59c-2.3-1.5-3.5-3.2-3.5-5.2v-3.6c0-3.6,2.9-6.5,6.5-6.5h1.2v-1.3 c0-0.7,0.6-1.2,1.2-1.2s1.2,0.6,1.2,1.2v1.3h0.5c3.6,0,6.5,2.9,6.5,6.5L55.1,51.9z"/><path fill="inherit" d="M48.1,73h0.5c2.2,0,4-1.8,4-4v-3.6c0-1-0.9-2.1-2.4-3L48,61.6L48.1,73z"/></g></svg>